<svg width="42" height="42" viewBox="0 0 42 42" fill="none" xmlns="http://www.w3.org/2000/svg">
<g opacity="0.8">
<g clip-path="url(#clip0)">
<path d="M21.0108 42.0217C32.6148 42.0217 42.0217 32.6148 42.0217 21.0108C42.0217 9.40688 32.6148 0 21.0108 0C9.40688 0 0 9.40688 0 21.0108C0 32.6148 9.40688 42.0217 21.0108 42.0217Z" fill="url(#paint0_linear)"/>
<path d="M29.0265 12.4488C29.0265 12.4488 31.2126 11.5986 31.0304 13.6633C30.9697 14.5134 30.4232 17.489 29.9981 20.7074L28.5407 30.2412C28.5407 30.2412 28.4193 31.6379 27.3262 31.8808C26.2332 32.1237 24.5936 31.0306 24.29 30.7877C24.0471 30.6055 19.7356 27.8729 18.2175 26.537C17.7924 26.1726 17.3066 25.4439 18.2782 24.5938L24.6543 18.5213C25.383 17.7926 26.1117 16.0923 23.0755 18.1569L14.574 23.9258C14.574 23.9258 13.6024 24.5331 11.7806 23.9865L7.83349 22.772C7.83349 22.772 6.37609 21.8612 8.86582 20.9503C14.9383 18.0962 22.4075 15.1814 29.0265 12.4488Z" fill="white"/>
</g>
</g>
<defs>
<linearGradient id="paint0_linear" x1="27.9335" y1="6.67975" x2="17.6102" y2="31.577" gradientUnits="userSpaceOnUse">
<stop stop-color="#2AABEE"/>
<stop offset="1" stop-color="#229ED9"/>
</linearGradient>
<clipPath id="clip0">
<rect width="42" height="42" fill="white"/>
</clipPath>
</defs>
</svg>
