<svg width="42" height="42" viewBox="0 0 42 42" fill="none" xmlns="http://www.w3.org/2000/svg">
<g opacity="0.8">
<g clip-path="url(#clip0)">
<path d="M11.5469 35.3347L12.179 35.7094C14.835 37.2856 17.88 38.1192 20.9852 38.1209H20.992C30.5285 38.1209 38.29 30.3611 38.2936 20.824C38.2951 16.202 36.4973 11.8564 33.2306 8.58675C29.9638 5.31771 25.6203 3.51614 20.9982 3.51422C11.4545 3.51422 3.69293 11.2728 3.68933 20.8099C3.68807 24.078 4.6023 27.2609 6.3345 30.0145L6.74622 30.669L4.99793 37.0517L11.5469 35.3347ZM0.000274658 41.9958L2.95345 31.2124C1.1319 28.0564 0.173628 24.4763 0.175128 20.8089C0.179568 9.33487 9.5172 0 20.9924 0C26.5607 0.00240017 31.7872 2.16951 35.7175 6.10303C39.6473 10.0365 41.8109 15.2651 41.8091 20.8257C41.8042 32.2991 32.4646 41.6358 20.9924 41.6358C20.9916 41.6358 20.9928 41.6358 20.9924 41.6358H20.9835C17.4997 41.6346 14.0764 40.7607 11.036 39.1024L0.000274658 41.9958Z" fill="white"/>
<path d="M0.892522 20.8197C0.891261 24.3599 1.81629 27.8162 3.57519 30.8632L0.72403 41.2734L11.3772 38.48C14.3124 40.0795 17.617 40.9239 20.9803 40.9249H20.989C32.0645 40.9249 41.0796 31.9123 41.0844 20.8355C41.0865 15.4675 38.998 10.4206 35.2037 6.6229C31.4099 2.82577 26.3644 0.733477 20.9881 0.730957C9.91187 0.730957 0.896821 9.7424 0.89202 20.8198L0.892522 20.8197ZM20.9887 40.9248H20.9889H20.9887C20.9884 40.9248 20.9882 40.9248 20.9887 40.9248Z" fill="url(#paint0_linear)"/>
<path d="M0.174884 20.8139C0.173623 24.4813 1.13189 28.0619 2.95344 31.2175L3.05176e-05 42.0002L11.0354 39.1068C14.076 40.7649 17.4991 41.6387 20.9829 41.6402H20.9918C32.464 41.6402 41.8037 32.3035 41.8085 20.8301C41.8104 15.2692 39.6468 10.0407 35.7169 6.10743C31.7864 2.17415 26.5602 0.0067947 20.9918 0.00439453C9.5172 0.00439453 0.179334 9.33926 0.174533 20.8133L0.174884 20.8139ZM6.7462 30.6738L6.33427 30.0195C4.60206 27.2655 3.68784 24.0827 3.6891 20.8148C3.69288 11.2784 11.4543 3.51921 20.9979 3.51921C25.6196 3.52101 29.9632 5.32276 33.2304 8.59173C36.4973 11.8609 38.2949 16.2069 38.2936 20.8284C38.2894 30.3655 30.5279 38.1252 20.9914 38.1252H20.9846C17.8795 38.1234 14.8342 37.2899 12.1784 35.714L11.5463 35.3393L4.99744 37.0562L6.7462 30.6738ZM20.9918 41.6402H20.992H20.9918C20.9916 41.6402 20.9914 41.6402 20.9918 41.6402Z" fill="url(#paint1_linear)"/>
<path fill-rule="evenodd" clip-rule="evenodd" d="M15.7892 12.113C15.3995 11.2468 14.9895 11.2295 14.6188 11.2142C14.3155 11.2013 13.9685 11.2022 13.622 11.2022C13.2751 11.2022 12.7116 11.3323 12.2351 11.8528C11.7582 12.3734 10.4144 13.6316 10.4144 16.1906C10.4144 18.7499 12.2785 21.2227 12.5382 21.5701C12.7984 21.9168 16.1366 27.3363 21.4231 29.421C25.8169 31.1536 26.7111 30.809 27.6647 30.7222C28.6184 30.6356 30.7421 29.4644 31.1754 28.2498C31.609 27.0354 31.609 25.9944 31.479 25.777C31.349 25.5602 31.0021 25.43 30.482 25.1701C29.9616 24.9099 27.4045 23.6515 26.9278 23.4779C26.4509 23.3045 26.1042 23.2179 25.7572 23.7387C25.4105 24.2588 24.4143 25.43 24.1108 25.777C23.8074 26.1245 23.5039 26.1679 22.9838 25.9078C22.4634 25.6468 20.7882 25.0981 18.8009 23.3263C17.2546 21.9477 16.2108 20.2451 15.9072 19.7243C15.6039 19.2042 15.8748 18.9225 16.1356 18.6632C16.3693 18.4301 16.6559 18.0559 16.9161 17.7523C17.1756 17.4485 17.2622 17.2318 17.4356 16.8848C17.6091 16.5377 17.5224 16.2339 17.3924 15.9737C17.2622 15.7136 16.2514 13.1414 15.7889 12.1129" fill="white"/>
</g>
</g>
<defs>
<linearGradient id="paint0_linear" x1="20.9044" y1="41.2692" x2="20.9044" y2="0.726697" gradientUnits="userSpaceOnUse">
<stop stop-color="#20B038"/>
<stop offset="1" stop-color="#60D66A"/>
</linearGradient>
<linearGradient id="paint1_linear" x1="20.9046" y1="42.0014" x2="20.9046" y2="0.00565612" gradientUnits="userSpaceOnUse">
<stop stop-color="#F9F9F9"/>
<stop offset="1" stop-color="white"/>
</linearGradient>
<clipPath id="clip0">
<rect width="41.8091" height="42" fill="white"/>
</clipPath>
</defs>
</svg>
