<svg id="svg5" xmlns="http://www.w3.org/2000/svg" viewBox="0 0 348.48 295.73">
    <g id="layer1">
        <g id="g545">
            <path id="path547"
                  d="M0,295.46c0-.26,179.53-237.69,210.22-278L223.1.52H257L257.09,39l.14,38.51L285.92,38.8,314.62.05l16.93,0,16.93,0V166h-33.6l-.13-60.41-.13-60.41L286.18,83.7c-33.2,45-62.24,83.06-62.88,82.41-.25-.25-.51-27.22-.58-60.19l-.14-59.74L128.22,170.93,33.87,295.69l-16.94,0c-9.31,0-16.93-.1-16.93-.26Zm47.57,0C47.57,295,210.5,79.88,211,79.71c.29-.11.47,8.5.47,22l0,22.15L182.5,162c-15.92,21-28.94,38.29-28.94,38.39s11.83.18,26.28.18h26.28l49.75-64.36c27.36-35.39,50-64.49,50.24-64.66s.49,7.93.49,21.65v22l-42.46,52.63c-38.26,47.43-42.4,52.73-41.83,53.64.35.56,13.06,17.14,28.25,36.86s27.76,36.19,27.93,36.63c.27.7-1.59.79-16.43.78H245.33l-22.08-28c-12.15-15.42-24.72-31.52-27.92-35.79l-5.84-7.76L162.6,224l-26.9-.13-27.13,35.92L81.43,295.71l-16.93,0C55.19,295.74,47.57,295.63,47.57,295.49Z"
                  fill="#f1faee"/>
        </g>
    </g>
</svg>