<svg width="42" height="42" viewBox="0 0 42 42" fill="none" xmlns="http://www.w3.org/2000/svg">
<g opacity="0.8">
<g clip-path="url(#clip0)">
<path d="M2.86364 36.5001H9.54545V20.2729L0 13.1138V33.6365C0 35.221 1.28386 36.5001 2.86364 36.5001Z" fill="#4285F4"/>
<path d="M32.4545 36.5001H39.1363C40.7209 36.5001 42 35.2163 42 33.6365V13.1138L32.4545 20.2729" fill="#34A853"/>
<path d="M32.4545 7.86346V20.2726L42 13.1135V9.29528C42 5.75391 37.9575 3.73505 35.1273 5.85891" fill="#FBBC04"/>
<path d="M9.54544 20.2729V7.86377L21 16.4547L32.4545 7.86377V20.2729L21 28.8638" fill="#EA4335"/>
<path d="M0 9.29528V13.1135L9.54545 20.2726V7.86346L6.87273 5.85891C4.03773 3.73505 0 5.75391 0 9.29528Z" fill="#C5221F"/>
</g>
</g>
<defs>
<clipPath id="clip0">
<rect width="42" height="31.5" fill="white" transform="translate(0 5)"/>
</clipPath>
</defs>
</svg>
