<svg width="42" height="42" viewBox="0 0 42 42" fill="none" xmlns="http://www.w3.org/2000/svg">
<g opacity="0.8">
<g clip-path="url(#clip0)">
<path fill-rule="evenodd" clip-rule="evenodd" d="M21 0.999958C9.40354 0.999958 0 10.4014 0 22C0 31.278 6.01714 39.1497 14.3611 41.9265C15.4106 42.1208 15.7959 41.4709 15.7959 40.9162C15.7959 40.4158 15.7764 38.7612 15.7674 37.0065C9.92517 38.2768 8.69239 34.5287 8.69239 34.5287C7.73712 32.1018 6.36072 31.456 6.36072 31.456C4.45539 30.1526 6.50434 30.1794 6.50434 30.1794C8.6131 30.3276 9.72347 32.3438 9.72347 32.3438C11.5965 35.5539 14.6362 34.6258 15.8345 34.0892C16.0233 32.7323 16.5672 31.8055 17.1678 31.2811C12.5034 30.7504 7.6001 28.9494 7.6001 20.9028C7.6001 18.6104 8.42045 16.7371 9.76381 15.2665C9.54577 14.7372 8.82697 12.6013 9.96759 9.70869C9.96759 9.70869 11.731 9.14464 15.7437 11.8616C17.4189 11.3963 19.2153 11.163 21 11.1546C22.7847 11.163 24.5825 11.3963 26.2608 11.8616C30.269 9.14464 32.03 9.70869 32.03 9.70869C33.173 12.6013 32.4542 14.7372 32.2362 15.2665C33.5827 16.7371 34.3971 18.6104 34.3971 20.9028C34.3971 28.9689 29.4844 30.7445 24.8082 31.2644C25.5615 31.9161 26.2326 33.1941 26.2326 35.1533C26.2326 37.9631 26.2086 40.2246 26.2086 40.9162C26.2086 41.4754 26.5863 42.1302 27.6507 41.924C35.9905 39.1441 42 31.2752 42 22C42 10.4014 32.5979 0.999958 21 0.999958Z" fill="white"/>
<path d="M7.95392 31.1509C7.90767 31.2556 7.74353 31.2869 7.594 31.2149C7.44133 31.1464 7.35613 31.0042 7.40551 30.8995C7.45072 30.7924 7.61486 30.7625 7.76718 30.8341C7.91949 30.9026 8.00643 31.0462 7.95392 31.1509Z" fill="white"/>
<path d="M8.80463 32.1C8.70448 32.1929 8.50835 32.1497 8.37586 32.003C8.23815 31.8566 8.21276 31.6604 8.31431 31.5665C8.41759 31.4737 8.60746 31.5172 8.74482 31.6636C8.88253 31.8117 8.90931 32.0061 8.80463 32.1Z" fill="white"/>
<path d="M9.63259 33.3091C9.50393 33.3988 9.29319 33.315 9.16313 33.1283C9.03446 32.9412 9.03446 32.7172 9.16626 32.6275C9.29632 32.5378 9.50393 32.6188 9.63572 32.8038C9.76404 32.9937 9.76404 33.2176 9.63259 33.3091Z" fill="white"/>
<path d="M10.7668 34.4778C10.6517 34.6047 10.4066 34.5706 10.2271 34.3974C10.0435 34.2281 9.99239 33.9878 10.1075 33.8608C10.2243 33.7336 10.4709 33.7694 10.6517 33.9412C10.8339 34.1102 10.8892 34.3522 10.7668 34.4778Z" fill="white"/>
<path d="M12.3317 35.1563C12.2806 35.3208 12.0448 35.3952 11.807 35.3253C11.5695 35.2534 11.414 35.0611 11.462 34.8948C11.5114 34.729 11.7486 34.6514 11.9882 34.7262C12.2253 34.7978 12.3811 34.9891 12.3317 35.1563Z" fill="white"/>
<path d="M14.0504 35.2819C14.0563 35.4551 13.8547 35.5987 13.605 35.6019C13.3539 35.6078 13.1505 35.4673 13.1477 35.2969C13.1477 35.122 13.3452 34.9801 13.5959 34.9756C13.8456 34.9707 14.0504 35.1101 14.0504 35.2819Z" fill="white"/>
<path d="M15.6496 35.0098C15.6795 35.1785 15.506 35.352 15.258 35.3983C15.0143 35.4431 14.7886 35.3385 14.7576 35.1712C14.7274 34.998 14.9037 34.8245 15.1475 34.7796C15.3957 34.7365 15.618 34.8381 15.6496 35.0098Z" fill="white"/>
</g>
</g>
<defs>
<clipPath id="clip0">
<rect width="42" height="40.9629" fill="white" transform="translate(0 1)"/>
</clipPath>
</defs>
</svg>
