<svg width="42" height="42" viewBox="0 0 42 42" fill="none" xmlns="http://www.w3.org/2000/svg">
<g opacity="0.8">
<path d="M6.34221 0.00244141H35.6578C39.1605 0.00244141 42 2.84195 42 6.34465V35.656C42 39.1587 39.1605 41.9982 35.6578 41.9982H6.34221C2.8395 41.9982 0 39.1587 0 35.656V6.34465C0 2.84195 2.8395 0.00244141 6.34221 0.00244141Z" fill="#006699"/>
<path opacity="0.781116" d="M30.9036 1.79785H11.0964C5.85333 1.79785 1.63254 6.05308 1.63254 11.3388V30.663C1.80225 34.7889 2.45504 32.1806 3.69761 27.6115C5.14174 22.3012 9.84494 17.66 15.5725 14.1816C19.9441 11.5267 24.8375 9.8314 33.7444 9.67012C38.7958 9.57866 38.3499 3.11434 30.9037 1.79785H30.9036Z" fill="url(#paint0_linear)"/>
<path d="M13.4383 35.2486V16.1629H7.09462V35.2486H13.4383ZM10.2673 13.5556C12.4794 13.5556 13.8564 12.09 13.8564 10.2586C13.8152 8.38581 12.4795 6.96094 10.3093 6.96094C8.13937 6.96094 6.7204 8.38583 6.7204 10.2586C6.7204 12.0901 8.09701 13.5556 10.2259 13.5556H10.2672H10.2673Z" fill="white"/>
<path d="M16.9495 35.2485H23.2932V24.5902C23.2932 24.0198 23.3344 23.4499 23.5019 23.0422C23.9605 21.9025 25.0043 20.7221 26.7567 20.7221C29.0522 20.7221 29.9706 22.4723 29.9706 25.038V35.2484H36.3138V24.3049C36.3138 18.4425 33.1842 15.7148 29.0105 15.7148C25.5883 15.7148 24.0857 17.6277 23.251 18.9306H23.2933V16.1626H16.9497C17.0329 17.9534 16.9497 35.2482 16.9497 35.2482L16.9495 35.2485Z" fill="white"/>
</g>
<defs>
<linearGradient id="paint0_linear" x1="5.26035" y1="-4.31049" x2="10.7252" y2="11.618" gradientUnits="userSpaceOnUse">
<stop stop-color="white"/>
<stop offset="1" stop-color="white" stop-opacity="0"/>
</linearGradient>
</defs>
</svg>
