<svg width="42" height="42" viewBox="0 0 42 42" fill="none" xmlns="http://www.w3.org/2000/svg">
<g opacity="0.8">
<path fill-rule="evenodd" clip-rule="evenodd" d="M14.56 0H27.44C39.2 0 42 2.8 42 14.56V27.44C42 39.2 39.2 42 27.44 42H14.56C2.8 42 0 39.2 0 27.44V14.56C0 2.8 2.8 0 14.56 0Z" fill="#2787F5"/>
<path fill-rule="evenodd" clip-rule="evenodd" d="M34.3949 14.4695C34.5895 13.8206 34.3949 13.3438 33.4688 13.3438H30.4063C29.6276 13.3438 29.2686 13.7557 29.0739 14.2099C29.0739 14.2099 27.5165 18.006 25.3103 20.4718C24.5965 21.1855 24.272 21.4126 23.8827 21.4126C23.688 21.4126 23.4063 21.1855 23.4063 20.5367V14.4695C23.4063 13.6908 23.1803 13.3438 22.5313 13.3438H17.7188C17.2322 13.3438 16.9395 13.7052 16.9395 14.0477C16.9395 14.7859 18.0426 14.9561 18.1563 17.0326V21.5425C18.1563 22.5312 17.9777 22.7105 17.5884 22.7105C16.5502 22.7105 14.0248 18.8975 12.5269 14.5343C12.2334 13.6863 11.939 13.3438 11.1563 13.3438H8.0938C7.2188 13.3438 7.04379 13.7557 7.04379 14.2099C7.04379 15.021 8.08205 19.0442 11.8781 24.3652C14.4088 27.999 17.9743 29.9688 21.2188 29.9688C23.1655 29.9688 23.4063 29.5312 23.4063 28.7777V26.0312C23.4063 25.1562 23.5907 24.9816 24.2072 24.9816C24.6614 24.9816 25.4401 25.2087 27.257 26.9608C29.3335 29.0372 29.6758 29.9688 30.8438 29.9688H33.9063C34.7813 29.9688 35.2188 29.5313 34.9664 28.6679C34.6902 27.8074 33.6988 26.5589 32.3833 25.0789C31.6695 24.2354 30.5988 23.327 30.2744 22.8727C29.8202 22.2887 29.9499 22.0291 30.2744 21.51C30.2744 21.51 34.0056 16.2539 34.3949 14.4695Z" fill="white"/>
</g>
</svg>
